<svg width="118" height="32" viewBox="0 0 118 32" fill="none" xmlns="http://www.w3.org/2000/svg">
<path d="M6.89934 0H10.3293V10.339C10.3293 11.9166 10.2812 13.6397 10.1849 15.5085C10.0886 17.3773 9.88403 19.2947 9.57112 21.2605C9.28228 23.2264 8.84902 25.1316 8.27133 26.9761C7.71772 28.8206 6.97155 30.4953 6.03282 32C5.81619 31.8058 5.51532 31.5874 5.1302 31.3447C4.76915 31.1263 4.39606 30.9079 4.01094 30.6894C3.62582 30.4953 3.28884 30.3496 3 30.2526C3.89059 28.8206 4.60066 27.2552 5.1302 25.5563C5.65974 23.8574 6.04486 22.1221 6.28556 20.3504C6.52626 18.5544 6.68271 16.807 6.75492 15.1081C6.8512 13.3849 6.89934 11.7952 6.89934 10.339V0ZM8.77681 0H34.0142V8.77361H8.77681V5.97042H30.5842V2.83959H8.77681V0ZM10.0405 10.8123H35.0613V13.5791H10.0405V10.8123ZM11.7013 22.1706H33.3282V24.9374H11.7013V22.1706ZM9.10175 28.2867H36V31.0535H9.10175V28.2867ZM20.6915 19.0398H24.0131V30.1069H20.6915V19.0398ZM10.907 17.1468C12.5919 17.0982 14.5416 17.0497 16.756 17.0011C18.9945 16.9283 21.3654 16.8555 23.8687 16.7827C26.372 16.6856 28.8753 16.5885 31.3786 16.4915L31.3063 19.0762C28.8753 19.1733 26.4322 19.2825 23.977 19.4039C21.546 19.5009 19.2232 19.598 17.0088 19.6951C14.7943 19.7679 12.8206 19.8407 11.0875 19.9135L10.907 17.1468ZM17.9475 11.4312L21.3775 12.5597C20.6554 13.7004 19.8851 14.8654 19.0667 16.0546C18.2724 17.2438 17.5383 18.251 16.8643 19.0762L14.1926 18.0205C14.6499 17.4137 15.1072 16.7342 15.5646 15.9818C16.0219 15.2052 16.4672 14.4164 16.9004 13.6155C17.3337 12.8146 17.6827 12.0865 17.9475 11.4312ZM24.988 14.7804L27.5875 13.1422C28.4781 13.7004 29.3928 14.3314 30.3315 15.0353C31.2702 15.7391 32.1608 16.4551 33.0033 17.1832C33.8457 17.887 34.5317 18.5544 35.0613 19.1854L32.2812 21.0057C31.7998 20.3989 31.1499 19.7315 30.3315 19.0034C29.5372 18.251 28.6707 17.5108 27.7319 16.7827C26.7932 16.0303 25.8786 15.3629 24.988 14.7804Z" fill="black"/>
<g clip-path="url(#clip0_2019_2556)">
<path d="M50.755 7.86767C50.755 7.52767 50.721 7.27834 50.653 7.11967C50.585 6.94967 50.4547 6.83067 50.262 6.76267C50.0693 6.69467 49.7633 6.66067 49.344 6.66067C49.31 6.66067 49.293 6.62667 49.293 6.55867C49.293 6.49067 49.31 6.45667 49.344 6.45667L50.177 6.47367C50.7437 6.49634 51.2537 6.50767 51.707 6.50767C52.013 6.50767 52.4493 6.49634 53.016 6.47367L53.968 6.45667C54.002 6.45667 54.019 6.49067 54.019 6.55867C54.019 6.62667 54.002 6.66067 53.968 6.66067C53.5827 6.66067 53.2937 6.69467 53.101 6.76267C52.9197 6.81933 52.795 6.927 52.727 7.08567C52.6703 7.24434 52.642 7.49367 52.642 7.83367V15.7047C52.642 16.0447 52.6703 16.2997 52.727 16.4697C52.795 16.6283 52.9197 16.736 53.101 16.7927C53.2823 16.8493 53.5713 16.8777 53.968 16.8777C54.002 16.8777 54.019 16.9117 54.019 16.9797C54.019 17.0477 54.002 17.0817 53.968 17.0817C53.5713 17.0817 53.254 17.076 53.016 17.0647L51.707 17.0477L50.177 17.0647C49.973 17.076 49.6953 17.0817 49.344 17.0817C49.31 17.0817 49.293 17.0477 49.293 16.9797C49.293 16.9117 49.31 16.8777 49.344 16.8777C49.7633 16.8777 50.0693 16.8493 50.262 16.7927C50.4547 16.736 50.585 16.6283 50.653 16.4697C50.721 16.311 50.755 16.056 50.755 15.7047V7.86767ZM44.261 11.3187H51.622V11.7947H44.261V11.3187ZM43.377 7.83367C43.377 7.49367 43.343 7.24434 43.275 7.08567C43.207 6.927 43.0823 6.81933 42.901 6.76267C42.731 6.69467 42.4533 6.66067 42.068 6.66067C42.034 6.66067 42.017 6.62667 42.017 6.55867C42.017 6.49067 42.034 6.45667 42.068 6.45667L42.986 6.47367C43.5073 6.49634 43.9267 6.50767 44.244 6.50767C44.6747 6.50767 45.1733 6.49634 45.74 6.47367L46.675 6.45667C46.6977 6.45667 46.709 6.49067 46.709 6.55867C46.709 6.62667 46.6977 6.66067 46.675 6.66067C46.267 6.66067 45.9667 6.69467 45.774 6.76267C45.5813 6.83067 45.4453 6.94967 45.366 7.11967C45.298 7.27834 45.264 7.52767 45.264 7.86767V15.7047C45.264 16.0447 45.298 16.2997 45.366 16.4697C45.434 16.6283 45.5643 16.736 45.757 16.7927C45.9497 16.8493 46.2557 16.8777 46.675 16.8777C46.6977 16.8777 46.709 16.9117 46.709 16.9797C46.709 17.0477 46.6977 17.0817 46.675 17.0817C46.2783 17.0817 45.961 17.076 45.723 17.0647L44.244 17.0477L42.969 17.0647C42.7423 17.076 42.4307 17.0817 42.034 17.0817C42.0113 17.0817 42 17.0477 42 16.9797C42 16.9117 42.0113 16.8777 42.034 16.8777C42.4307 16.8777 42.7197 16.8493 42.901 16.7927C43.0823 16.736 43.207 16.6283 43.275 16.4697C43.343 16.2997 43.377 16.0447 43.377 15.7047V7.83367Z" fill="black"/>
<path d="M63.7884 17.2857C62.7344 17.2857 61.7938 17.042 60.9664 16.5547C60.1504 16.056 59.5158 15.3873 59.0624 14.5487C58.6204 13.6987 58.3994 12.775 58.3994 11.7777C58.3994 10.6103 58.6941 9.613 59.2834 8.78567C59.8728 7.947 60.6264 7.318 61.5444 6.89867C62.4738 6.47934 63.4201 6.26967 64.3834 6.26967C65.4601 6.26967 66.4064 6.52467 67.2224 7.03467C68.0384 7.53334 68.6618 8.19634 69.0924 9.02367C69.5344 9.851 69.7554 10.7293 69.7554 11.6587C69.7554 12.69 69.4834 13.6363 68.9394 14.4977C68.3954 15.359 67.6644 16.039 66.7464 16.5377C65.8398 17.0363 64.8538 17.2857 63.7884 17.2857ZM64.3494 16.8607C64.9841 16.8607 65.5508 16.6793 66.0494 16.3167C66.5594 15.9427 66.9561 15.4043 67.2394 14.7017C67.5228 13.9877 67.6644 13.1377 67.6644 12.1517C67.6644 11.109 67.5058 10.1797 67.1884 9.36367C66.8711 8.53634 66.4121 7.89034 65.8114 7.42567C65.2108 6.961 64.5081 6.72867 63.7034 6.72867C62.6721 6.72867 61.8788 7.11967 61.3234 7.90167C60.7681 8.67234 60.4904 9.75467 60.4904 11.1487C60.4904 12.248 60.6548 13.234 60.9834 14.1067C61.3234 14.968 61.7824 15.6423 62.3604 16.1297C62.9498 16.617 63.6128 16.8607 64.3494 16.8607Z" fill="black"/>
<path d="M75.801 6.84767L76.311 6.88167V14.9227C76.311 15.5233 76.4357 15.9993 76.685 16.3507C76.9344 16.702 77.28 16.8777 77.722 16.8777C77.7447 16.8777 77.756 16.9117 77.756 16.9797C77.756 17.0477 77.7447 17.0817 77.722 17.0817C77.4047 17.0817 77.161 17.076 76.991 17.0647L76.073 17.0477L75.019 17.0647C74.8264 17.076 74.5487 17.0817 74.186 17.0817C74.152 17.0817 74.135 17.0477 74.135 16.9797C74.135 16.9117 74.152 16.8777 74.186 16.8777C74.6847 16.8777 75.0757 16.702 75.359 16.3507C75.6537 15.9993 75.801 15.5233 75.801 14.9227V6.84767ZM84.471 17.3367C84.471 17.3707 84.4427 17.3933 84.386 17.4047C84.3407 17.416 84.3067 17.4103 84.284 17.3877L75.903 7.85067C75.5064 7.39734 75.1664 7.08567 74.883 6.91567C74.5997 6.74567 74.3107 6.66067 74.016 6.66067C73.9934 6.66067 73.982 6.62667 73.982 6.55867C73.982 6.49067 73.9934 6.45667 74.016 6.45667L74.73 6.47367C74.8774 6.485 75.0927 6.49067 75.376 6.49067L76.668 6.47367C76.8267 6.46234 77.0194 6.45667 77.246 6.45667C77.3367 6.45667 77.4047 6.47934 77.45 6.52467C77.4954 6.57 77.5747 6.66634 77.688 6.81367C77.8807 7.07434 78.0167 7.25 78.096 7.34067L84.335 14.5317L84.471 17.3367ZM84.471 17.3367L83.978 16.8267V8.63267C83.978 8.02067 83.8534 7.539 83.604 7.18767C83.3547 6.83634 83.009 6.66067 82.567 6.66067C82.5444 6.66067 82.533 6.62667 82.533 6.55867C82.533 6.49067 82.5444 6.45667 82.567 6.45667L83.298 6.47367C83.6607 6.49634 83.9667 6.50767 84.216 6.50767C84.4427 6.50767 84.76 6.49634 85.168 6.47367L85.933 6.45667C85.9557 6.45667 85.967 6.49067 85.967 6.55867C85.967 6.62667 85.9557 6.66067 85.933 6.66067C85.4797 6.66067 85.1227 6.842 84.862 7.20467C84.6014 7.556 84.471 8.032 84.471 8.63267V17.3367Z" fill="black"/>
<path d="M96.7 8.80267C97.006 8.29267 97.159 7.85634 97.159 7.49367C97.159 7.22167 97.074 7.01767 96.904 6.88167C96.7454 6.73434 96.513 6.66067 96.207 6.66067C96.173 6.66067 96.156 6.62667 96.156 6.55867C96.156 6.49067 96.173 6.45667 96.207 6.45667L97.108 6.47367C97.6294 6.49634 98.094 6.50767 98.502 6.50767C98.6947 6.50767 98.927 6.49634 99.199 6.47367L99.828 6.45667C99.8507 6.45667 99.862 6.49067 99.862 6.55867C99.862 6.62667 99.8507 6.66067 99.828 6.66067C99.4767 6.66067 99.046 6.88167 98.536 7.32367C98.026 7.75434 97.5727 8.29834 97.176 8.95567L94.966 12.6447L94.609 12.3557L96.7 8.80267ZM91.039 8.41167C90.6197 7.75434 90.2684 7.301 89.985 7.05167C89.713 6.791 89.4807 6.66067 89.288 6.66067C89.254 6.66067 89.237 6.62667 89.237 6.55867C89.237 6.49067 89.254 6.45667 89.288 6.45667L89.815 6.47367C90.0644 6.49634 90.24 6.50767 90.342 6.50767C90.7387 6.50767 91.311 6.49634 92.059 6.47367L93.181 6.45667C93.2037 6.45667 93.215 6.49067 93.215 6.55867C93.215 6.62667 93.2037 6.66067 93.181 6.66067C92.9884 6.66067 92.8354 6.706 92.722 6.79667C92.62 6.88734 92.569 7.00634 92.569 7.15367C92.569 7.335 92.6484 7.55034 92.807 7.79967L95.255 11.6587L93.623 12.4237L91.039 8.41167ZM95.408 11.6587V15.7047C95.408 16.056 95.4364 16.311 95.493 16.4697C95.5497 16.6283 95.6574 16.736 95.816 16.7927C95.986 16.8493 96.2524 16.8777 96.615 16.8777C96.649 16.8777 96.666 16.9117 96.666 16.9797C96.666 17.0477 96.649 17.0817 96.615 17.0817C96.241 17.0817 95.9464 17.076 95.731 17.0647L94.456 17.0477L93.198 17.0647C92.9714 17.076 92.6654 17.0817 92.28 17.0817C92.2574 17.0817 92.246 17.0477 92.246 16.9797C92.246 16.9117 92.2574 16.8777 92.28 16.8777C92.6427 16.8777 92.909 16.8493 93.079 16.7927C93.249 16.736 93.3624 16.6283 93.419 16.4697C93.487 16.2997 93.521 16.0447 93.521 15.7047V11.8117L95.408 11.6587Z" fill="black"/>
<path d="M105.853 11.5227H109.355L109.474 11.9987H105.598L105.853 11.5227ZM114.081 16.8777C114.138 16.8777 114.166 16.9117 114.166 16.9797C114.166 17.0477 114.138 17.0817 114.081 17.0817C113.854 17.0817 113.503 17.0703 113.027 17.0477C112.528 17.025 112.171 17.0137 111.956 17.0137C111.673 17.0137 111.327 17.025 110.919 17.0477C110.534 17.0703 110.228 17.0817 110.001 17.0817C109.956 17.0817 109.933 17.0477 109.933 16.9797C109.933 16.9117 109.956 16.8777 110.001 16.8777C110.296 16.8777 110.505 16.8493 110.63 16.7927C110.766 16.7247 110.834 16.6113 110.834 16.4527C110.834 16.26 110.721 15.937 110.494 15.4837L107.043 8.66667L107.876 7.20467L104.493 14.6677C104.346 14.9963 104.272 15.3023 104.272 15.5857C104.272 15.9937 104.414 16.311 104.697 16.5377C104.992 16.7643 105.383 16.8777 105.87 16.8777C105.927 16.8777 105.955 16.9117 105.955 16.9797C105.955 17.0477 105.927 17.0817 105.87 17.0817C105.666 17.0817 105.371 17.0703 104.986 17.0477C104.555 17.025 104.181 17.0137 103.864 17.0137C103.558 17.0137 103.19 17.025 102.759 17.0477C102.374 17.0703 102.062 17.0817 101.824 17.0817C101.779 17.0817 101.756 17.0477 101.756 16.9797C101.756 16.9117 101.779 16.8777 101.824 16.8777C102.141 16.8777 102.408 16.8153 102.623 16.6907C102.838 16.5547 103.054 16.3223 103.269 15.9937C103.484 15.6537 103.739 15.155 104.034 14.4977L107.723 6.38867C107.746 6.35467 107.797 6.33767 107.876 6.33767C107.967 6.33767 108.018 6.35467 108.029 6.38867L112.279 14.7527C112.676 15.5573 113.004 16.1127 113.265 16.4187C113.526 16.7247 113.798 16.8777 114.081 16.8777Z" fill="black"/>
<path d="M45.6416 20.9853C46.1443 20.9853 46.5906 21.0807 46.9806 21.2713C47.3706 21.462 47.6696 21.7263 47.8776 22.0643C48.0943 22.3937 48.2026 22.7663 48.2026 23.1823C48.2026 23.6417 48.0899 24.0577 47.8646 24.4303C47.6393 24.803 47.3273 25.0977 46.9286 25.3143C46.5386 25.5223 46.1009 25.6263 45.6156 25.6263C45.3296 25.6263 45.0176 25.6133 44.6796 25.5873C44.5583 25.5787 44.4153 25.57 44.2506 25.5613C44.0859 25.5527 43.9039 25.5483 43.7046 25.5483L42.8206 25.5613C42.6646 25.57 42.4436 25.5743 42.1576 25.5743C42.1403 25.5743 42.1316 25.5483 42.1316 25.4963C42.1316 25.4443 42.1403 25.4183 42.1576 25.4183C42.4869 25.4183 42.7296 25.3967 42.8856 25.3533C43.0416 25.3013 43.1499 25.2147 43.2106 25.0933C43.2713 24.972 43.3016 24.7813 43.3016 24.5213V18.5023C43.3016 18.2423 43.2713 18.0517 43.2106 17.9303C43.1586 17.809 43.0546 17.7267 42.8986 17.6833C42.7426 17.6313 42.5043 17.6053 42.1836 17.6053C42.1576 17.6053 42.1446 17.5793 42.1446 17.5273C42.1446 17.4753 42.1576 17.4493 42.1836 17.4493L42.8206 17.4623C43.1846 17.4797 43.4793 17.4883 43.7046 17.4883C43.8606 17.4883 44.0036 17.484 44.1336 17.4753C44.2723 17.4667 44.3893 17.458 44.4846 17.4493C44.7619 17.4233 45.0133 17.4103 45.2386 17.4103C45.9666 17.4103 46.5126 17.5707 46.8766 17.8913C47.2406 18.2033 47.4226 18.615 47.4226 19.1263C47.4226 19.6117 47.2449 20.032 46.8896 20.3873C46.5429 20.734 46.0793 20.981 45.4986 21.1283L45.6416 20.9853ZM44.9526 17.6053C44.7186 17.6053 44.5496 17.6227 44.4456 17.6573C44.3416 17.692 44.2636 17.7743 44.2116 17.9043C44.1596 18.0343 44.1336 18.2423 44.1336 18.5283V21.0763L43.7176 20.9723C44.0903 20.9983 44.4239 21.0113 44.7186 21.0113C45.3513 21.0113 45.8193 20.851 46.1226 20.5303C46.4259 20.201 46.5776 19.7677 46.5776 19.2303C46.5776 18.745 46.4433 18.355 46.1746 18.0603C45.9146 17.757 45.5073 17.6053 44.9526 17.6053ZM45.4206 25.3923C46.0533 25.3923 46.5213 25.232 46.8246 24.9113C47.1366 24.582 47.2926 24.114 47.2926 23.5073C47.2926 22.8487 47.0976 22.3157 46.7076 21.9083C46.3263 21.501 45.7976 21.293 45.1216 21.2843C44.6276 21.267 44.1726 21.2887 43.7566 21.3493L44.1336 21.2063V24.5213C44.1336 24.7467 44.1639 24.92 44.2246 25.0413C44.2939 25.1627 44.4196 25.2537 44.6016 25.3143C44.7923 25.3663 45.0653 25.3923 45.4206 25.3923Z" fill="black"/>
<path d="M54.1126 25.7303C53.5059 25.7303 52.9643 25.5873 52.4876 25.3013C52.0196 25.0153 51.6556 24.6297 51.3956 24.1443C51.1356 23.659 51.0056 23.1347 51.0056 22.5713C51.0056 21.8953 51.1789 21.3147 51.5256 20.8293C51.8809 20.3353 52.3273 19.9627 52.8646 19.7113C53.4106 19.46 53.9653 19.3343 54.5286 19.3343C55.1353 19.3343 55.6683 19.486 56.1276 19.7893C56.5956 20.084 56.9509 20.4697 57.1936 20.9463C57.4449 21.423 57.5706 21.9213 57.5706 22.4413C57.5706 23.022 57.4146 23.568 57.1026 24.0793C56.7906 24.582 56.3703 24.985 55.8416 25.2883C55.3129 25.583 54.7366 25.7303 54.1126 25.7303ZM54.4506 25.4573C55.1266 25.4573 55.6639 25.219 56.0626 24.7423C56.4699 24.2657 56.6736 23.607 56.6736 22.7663C56.6736 22.1857 56.5696 21.657 56.3616 21.1803C56.1623 20.7037 55.8676 20.3223 55.4776 20.0363C55.0876 19.7503 54.6239 19.6073 54.0866 19.6073C53.3933 19.6073 52.8559 19.8413 52.4746 20.3093C52.0933 20.7687 51.9026 21.4143 51.9026 22.2463C51.9026 22.8443 52.0023 23.386 52.2016 23.8713C52.4096 24.3567 52.7043 24.7423 53.0856 25.0283C53.4756 25.3143 53.9306 25.4573 54.4506 25.4573Z" fill="black"/>
<path d="M63.3055 25.7303C62.6989 25.7303 62.1572 25.5873 61.6805 25.3013C61.2125 25.0153 60.8485 24.6297 60.5885 24.1443C60.3285 23.659 60.1985 23.1347 60.1985 22.5713C60.1985 21.8953 60.3719 21.3147 60.7185 20.8293C61.0739 20.3353 61.5202 19.9627 62.0575 19.7113C62.6035 19.46 63.1582 19.3343 63.7215 19.3343C64.3282 19.3343 64.8612 19.486 65.3205 19.7893C65.7885 20.084 66.1439 20.4697 66.3865 20.9463C66.6379 21.423 66.7635 21.9213 66.7635 22.4413C66.7635 23.022 66.6075 23.568 66.2955 24.0793C65.9835 24.582 65.5632 24.985 65.0345 25.2883C64.5059 25.583 63.9295 25.7303 63.3055 25.7303ZM63.6435 25.4573C64.3195 25.4573 64.8569 25.219 65.2555 24.7423C65.6629 24.2657 65.8665 23.607 65.8665 22.7663C65.8665 22.1857 65.7625 21.657 65.5545 21.1803C65.3552 20.7037 65.0605 20.3223 64.6705 20.0363C64.2805 19.7503 63.8169 19.6073 63.2795 19.6073C62.5862 19.6073 62.0489 19.8413 61.6675 20.3093C61.2862 20.7687 61.0955 21.4143 61.0955 22.2463C61.0955 22.8443 61.1952 23.386 61.3945 23.8713C61.6025 24.3567 61.8972 24.7423 62.2785 25.0283C62.6685 25.3143 63.1235 25.4573 63.6435 25.4573Z" fill="black"/>
<path d="M69.3785 25.5743C69.3611 25.5743 69.3525 25.5483 69.3525 25.4963C69.3525 25.4443 69.3611 25.4183 69.3785 25.4183C69.6645 25.4183 69.8725 25.3967 70.0025 25.3533C70.1411 25.31 70.2365 25.2277 70.2885 25.1063C70.3405 24.9763 70.3665 24.7813 70.3665 24.5213V20.5433C70.3665 20.2833 70.3405 20.0927 70.2885 19.9713C70.2451 19.85 70.1541 19.7677 70.0155 19.7243C69.8855 19.6723 69.6775 19.6463 69.3915 19.6463C69.3741 19.6463 69.3655 19.6203 69.3655 19.5683C69.3655 19.5163 69.3741 19.4903 69.3915 19.4903L69.9765 19.5033C70.3058 19.5207 70.5615 19.5293 70.7435 19.5293C70.9601 19.5293 71.2331 19.5207 71.5625 19.5033L72.1215 19.4903C72.1388 19.4903 72.1475 19.5163 72.1475 19.5683C72.1475 19.6203 72.1388 19.6463 72.1215 19.6463C71.8441 19.6463 71.6361 19.6723 71.4975 19.7243C71.3588 19.7763 71.2635 19.8673 71.2115 19.9973C71.1681 20.1187 71.1465 20.3093 71.1465 20.5693V24.5213C71.1465 24.79 71.1681 24.985 71.2115 25.1063C71.2635 25.2277 71.3545 25.31 71.4845 25.3533C71.6145 25.3967 71.8268 25.4183 72.1215 25.4183C72.1388 25.4183 72.1475 25.4443 72.1475 25.4963C72.1475 25.5483 72.1388 25.5743 72.1215 25.5743C71.8788 25.5743 71.6881 25.57 71.5495 25.5613L70.7435 25.5483L69.9765 25.5613C69.8291 25.57 69.6298 25.5743 69.3785 25.5743ZM74.5005 25.5743C74.2231 25.5743 74.0628 25.5613 74.0195 25.5353C73.9761 25.5093 73.8418 25.323 73.6165 24.9763C73.3998 24.621 73.0921 24.192 72.6935 23.6893L71.6015 22.2983L72.1735 21.7913L73.1225 23.0003C73.7725 23.841 74.2231 24.4087 74.4745 24.7033C74.7258 24.9893 74.9425 25.18 75.1245 25.2753C75.3151 25.3707 75.5621 25.4183 75.8655 25.4183C75.8915 25.4183 75.9045 25.4443 75.9045 25.4963C75.9045 25.5483 75.8915 25.5743 75.8655 25.5743H74.5005ZM73.2135 20.5173C73.5601 20.188 73.7335 19.9627 73.7335 19.8413C73.7335 19.772 73.6858 19.7243 73.5905 19.6983C73.4951 19.6637 73.3391 19.6463 73.1225 19.6463C73.0965 19.6463 73.0835 19.6203 73.0835 19.5683C73.0835 19.5163 73.0965 19.4903 73.1225 19.4903L73.6035 19.5033C73.8808 19.5207 74.1668 19.5293 74.4615 19.5293C74.7995 19.5293 75.0985 19.5207 75.3585 19.5033C75.4365 19.4947 75.5318 19.4903 75.6445 19.4903C75.6705 19.4903 75.6835 19.5163 75.6835 19.5683C75.6835 19.6203 75.6705 19.6463 75.6445 19.6463C75.3498 19.6463 74.9988 19.7287 74.5915 19.8933C74.1928 20.0493 73.8245 20.292 73.4865 20.6213L70.9125 23.1433H70.6005L73.2135 20.5173Z" fill="black"/>
<path d="M79.155 20.5433C79.155 20.916 79.2807 21.2193 79.532 21.4533C79.7833 21.6787 80.1603 21.917 80.663 22.1683C81.0183 22.3503 81.3 22.515 81.508 22.6623C81.7247 22.8097 81.9067 22.9917 82.054 23.2083C82.2013 23.425 82.275 23.685 82.275 23.9883C82.275 24.309 82.184 24.6037 82.002 24.8723C81.8287 25.1323 81.5773 25.3403 81.248 25.4963C80.9187 25.6523 80.533 25.7303 80.091 25.7303C79.4757 25.7303 78.9557 25.5787 78.531 25.2753C78.4876 25.258 78.4573 25.232 78.44 25.1973C78.4313 25.1627 78.4227 25.1063 78.414 25.0283L78.284 23.7413C78.2753 23.7067 78.2926 23.685 78.336 23.6763C78.388 23.6677 78.4226 23.6807 78.44 23.7153C78.5613 24.218 78.7997 24.647 79.155 25.0023C79.519 25.349 79.922 25.5223 80.364 25.5223C80.6673 25.5223 80.9273 25.4357 81.144 25.2623C81.3693 25.0803 81.482 24.803 81.482 24.4303C81.482 24.0317 81.352 23.7067 81.092 23.4553C80.832 23.204 80.455 22.9483 79.961 22.6883C79.6143 22.4977 79.337 22.333 79.129 22.1943C78.9297 22.047 78.7607 21.8693 78.622 21.6613C78.4833 21.4533 78.414 21.202 78.414 20.9073C78.414 20.4133 78.6047 20.0277 78.986 19.7503C79.3673 19.473 79.831 19.3343 80.377 19.3343C80.819 19.3343 81.2523 19.434 81.677 19.6333C81.755 19.6767 81.8027 19.7113 81.82 19.7373C81.846 19.7633 81.8633 19.8023 81.872 19.8543L81.95 20.9853C81.95 21.02 81.924 21.0417 81.872 21.0503C81.8287 21.059 81.8027 21.046 81.794 21.0113C81.7506 20.7947 81.651 20.5737 81.495 20.3483C81.3476 20.1143 81.157 19.9193 80.923 19.7633C80.689 19.6073 80.429 19.5293 80.143 19.5293C79.831 19.5293 79.5883 19.6247 79.415 19.8153C79.2417 20.006 79.155 20.2487 79.155 20.5433Z" fill="black"/>
<path d="M87.3268 25.7303C86.8328 25.7303 86.4211 25.5917 86.0918 25.3143C85.7711 25.037 85.6108 24.5777 85.6108 23.9363V20.5303C85.6108 20.3137 85.5935 20.162 85.5588 20.0753C85.5328 19.98 85.4721 19.9193 85.3768 19.8933C85.2901 19.8587 85.1428 19.8413 84.9348 19.8413C84.9088 19.8413 84.8958 19.8153 84.8958 19.7633C84.8958 19.7027 84.9088 19.6723 84.9348 19.6723C85.2815 19.6723 85.5718 19.5813 85.8058 19.3993C86.0485 19.2173 86.1785 18.9833 86.1958 18.6973C86.1958 18.6713 86.2261 18.6583 86.2868 18.6583C86.3215 18.6583 86.3431 18.745 86.3518 18.9183C86.3691 19.0917 86.3778 19.577 86.3778 20.3743C86.3865 21.163 86.3908 22.2117 86.3908 23.5203C86.3908 24.127 86.5078 24.5777 86.7418 24.8723C86.9758 25.1583 87.3311 25.3013 87.8078 25.3013C88.2671 25.3013 88.6701 25.1843 89.0168 24.9503L89.0428 24.9373C89.0688 24.9373 89.0905 24.959 89.1078 25.0023C89.1251 25.037 89.1208 25.063 89.0948 25.0803C88.7395 25.3143 88.4275 25.479 88.1588 25.5743C87.8988 25.6783 87.6215 25.7303 87.3268 25.7303ZM88.7048 20.1793C87.9508 19.98 87.1101 19.8803 86.1828 19.8803V19.6463C86.7808 19.6463 87.6345 19.6073 88.7438 19.5293C88.7698 19.5293 88.7915 19.5553 88.8088 19.6073C88.8261 19.6593 88.8348 19.7287 88.8348 19.8153C88.8348 19.8933 88.8175 19.9757 88.7828 20.0623C88.7568 20.149 88.7308 20.188 88.7048 20.1793Z" fill="black"/>
<path d="M94.5548 25.7303C93.9481 25.7303 93.4065 25.5873 92.9298 25.3013C92.4618 25.0153 92.0978 24.6297 91.8378 24.1443C91.5778 23.659 91.4478 23.1347 91.4478 22.5713C91.4478 21.8953 91.6211 21.3147 91.9678 20.8293C92.3231 20.3353 92.7695 19.9627 93.3068 19.7113C93.8528 19.46 94.4075 19.3343 94.9708 19.3343C95.5775 19.3343 96.1105 19.486 96.5698 19.7893C97.0378 20.084 97.3931 20.4697 97.6358 20.9463C97.8871 21.423 98.0128 21.9213 98.0128 22.4413C98.0128 23.022 97.8568 23.568 97.5448 24.0793C97.2328 24.582 96.8125 24.985 96.2838 25.2883C95.7551 25.583 95.1788 25.7303 94.5548 25.7303ZM94.8928 25.4573C95.5688 25.4573 96.1061 25.219 96.5048 24.7423C96.9121 24.2657 97.1158 23.607 97.1158 22.7663C97.1158 22.1857 97.0118 21.657 96.8038 21.1803C96.6045 20.7037 96.3098 20.3223 95.9198 20.0363C95.5298 19.7503 95.0661 19.6073 94.5288 19.6073C93.8355 19.6073 93.2981 19.8413 92.9168 20.3093C92.5355 20.7687 92.3448 21.4143 92.3448 22.2463C92.3448 22.8443 92.4445 23.386 92.6438 23.8713C92.8518 24.3567 93.1465 24.7423 93.5278 25.0283C93.9178 25.3143 94.3728 25.4573 94.8928 25.4573Z" fill="black"/>
<path d="M103.371 25.4183C103.388 25.4183 103.397 25.4443 103.397 25.4963C103.397 25.5483 103.388 25.5743 103.371 25.5743C103.128 25.5743 102.942 25.57 102.812 25.5613L101.993 25.5483L101.226 25.5613C101.078 25.57 100.879 25.5743 100.628 25.5743C100.61 25.5743 100.602 25.5483 100.602 25.4963C100.602 25.4443 100.61 25.4183 100.628 25.4183C100.914 25.4183 101.122 25.3967 101.252 25.3533C101.39 25.31 101.486 25.2277 101.538 25.1063C101.59 24.9763 101.616 24.7813 101.616 24.5213V20.5433C101.616 20.2833 101.59 20.0927 101.538 19.9713C101.494 19.85 101.403 19.7677 101.265 19.7243C101.135 19.6723 100.927 19.6463 100.641 19.6463C100.623 19.6463 100.615 19.6203 100.615 19.5683C100.615 19.5163 100.623 19.4903 100.641 19.4903L101.239 19.5033C101.551 19.5207 101.802 19.5293 101.993 19.5293C102.149 19.5293 102.292 19.525 102.422 19.5163C102.56 19.5077 102.677 19.499 102.773 19.4903C103.05 19.4643 103.306 19.4513 103.54 19.4513C104.103 19.4513 104.532 19.5597 104.827 19.7763C105.121 19.993 105.269 20.305 105.269 20.7123C105.269 21.0677 105.165 21.397 104.957 21.7003C104.749 22.0037 104.463 22.2463 104.099 22.4283C103.735 22.6017 103.336 22.6883 102.903 22.6883C102.625 22.6883 102.387 22.671 102.188 22.6363L102.175 22.3763C102.391 22.437 102.664 22.4673 102.994 22.4673C103.531 22.4673 103.904 22.3503 104.112 22.1163C104.328 21.8737 104.437 21.5227 104.437 21.0633C104.437 20.11 104.025 19.6333 103.202 19.6333C102.872 19.6333 102.656 19.7027 102.552 19.8413C102.456 19.98 102.409 20.2227 102.409 20.5693V24.5213C102.409 24.79 102.43 24.985 102.474 25.1063C102.517 25.2277 102.604 25.31 102.734 25.3533C102.864 25.3967 103.076 25.4183 103.371 25.4183ZM107.232 25.4183C107.249 25.4183 107.258 25.4443 107.258 25.4963C107.258 25.5483 107.249 25.5743 107.232 25.5743H105.711C105.555 25.5743 105.273 25.3057 104.866 24.7683C104.458 24.231 103.973 23.4943 103.41 22.5583L104.099 22.2853C104.601 23.1087 105.022 23.7413 105.36 24.1833C105.698 24.6253 106.01 24.9417 106.296 25.1323C106.59 25.323 106.902 25.4183 107.232 25.4183Z" fill="black"/>
<path d="M112.009 25.7303C111.394 25.7303 110.865 25.5873 110.423 25.3013C109.99 25.0067 109.66 24.6253 109.435 24.1573C109.218 23.6893 109.11 23.1867 109.11 22.6493C109.11 22.0513 109.253 21.501 109.539 20.9983C109.825 20.487 110.206 20.084 110.683 19.7893C111.16 19.4947 111.68 19.3473 112.243 19.3473C112.824 19.3473 113.261 19.5077 113.556 19.8283C113.851 20.149 113.998 20.5823 113.998 21.1283C113.998 21.215 113.985 21.28 113.959 21.3233C113.942 21.358 113.903 21.3753 113.842 21.3753H113.075C113.084 21.306 113.088 21.2107 113.088 21.0893C113.088 20.6127 112.984 20.2487 112.776 19.9973C112.568 19.7373 112.256 19.6073 111.84 19.6073C111.485 19.6073 111.164 19.7113 110.878 19.9193C110.592 20.1273 110.367 20.4263 110.202 20.8163C110.046 21.2063 109.968 21.6657 109.968 22.1943C109.968 22.7837 110.068 23.3167 110.267 23.7933C110.466 24.2613 110.757 24.6297 111.138 24.8983C111.519 25.167 111.966 25.3013 112.477 25.3013C112.728 25.3013 112.984 25.2667 113.244 25.1973C113.504 25.128 113.734 25.0197 113.933 24.8723H113.946C113.972 24.8723 113.994 24.8897 114.011 24.9243C114.037 24.9503 114.041 24.9763 114.024 25.0023C113.409 25.4877 112.737 25.7303 112.009 25.7303ZM109.695 21.2063L113.322 21.1413V21.3753L109.708 21.3883L109.695 21.2063Z" fill="black"/>
</g>
<defs>
<clipPath id="clip0_2019_2556">
<rect width="72.1659" height="27.4607" fill="white" transform="translate(42 2.26967)"/>
</clipPath>
</defs>
</svg>
